<?xml version="1.0" encoding="UTF-8"?>
<svg id="Layer_1" data-name="Layer 1" xmlns="http://www.w3.org/2000/svg" viewBox="0 0 1000 1000">
  <defs>
    <style>
      .cls-1, .cls-2 {
        fill: none;
        stroke: #9ff;
        stroke-linejoin: round;
        stroke-width: 4px;
      }

      .cls-2 {
        stroke-linecap: round;
      }

      .cls-3 {
        opacity: .36;
      }
    </style>
  </defs>
  <rect x="-111.5" y="-50" width="1221" height="1185"/>
  <g class="cls-3">
    <g>
      <path class="cls-1" d="M308.49,85.2l-111.86,111.86s-55.93-55.93,0-111.86c55.93-55.93,111.86,0,111.86,0Z"/>
      <path class="cls-2" d="M172.17,120.85c-.55,4.92-.51,6.78-.04,11.35"/>
      <path class="cls-2" d="M174.22,107.59c-.52,1.84-.95,3.67-1.29,5.48"/>
      <path class="cls-2" d="M182.91,88.35c-2.32,3.67-4.23,7.32-5.76,10.93"/>
      <path class="cls-2" d="M202.38,66.06c-1.91,1.66-3.83,3.44-5.74,5.36-2.13,2.13-4.11,4.27-5.93,6.4"/>
      <path class="cls-2" d="M220.96,53.55c-2.72,1.33-5.45,2.88-8.2,4.66"/>
      <path class="cls-2" d="M247.03,46.65c-1.4,.07-2.8,.19-4.23,.36"/>
      <path class="cls-2" d="M272.71,50.17c-1.92-.62-3.9-1.18-5.93-1.66"/>
      <path class="cls-2" d="M308.49,85.2v-13.78s-9.54-9.52-24.63-16.77"/>
    </g>
    <path class="cls-2" d="M205.73,77.11s-6.84-9.03-1.2-16.18c4.49-5.69,14.82-.59,14.82-.59,0,0,1.66-14.99,10.65-16.79,8.99-1.8,15.58,5.99,15.58,5.99,0,0,3.46-10.28,13.78-8.99,7.19,.9,8.69,13.18,8.69,13.18,0,0,8.09-8.39,12.88-3.3,4.79,5.09,4.79,11.09,4.79,11.09,0,0,3.89-3.89,7.79,.3,5.22,5.62,1.5,8.69,1.5,8.69,0,0,5.39-.9,8.69,1.5s3.89,12.28,3.89,12.28"/>
    <path class="cls-2" d="M200.99,81.07s-13.24-5.16-19.23-4.26-16.13,11.66-16.45,12.57-15.3,16.49-15.3,16.49h4.4l.09,3.6,4.19-1.5,1.2,5.09,9.89-20.07s7.1-5.09,13.14-4.64,5.73,5.76,5.73,5.76"/>
    <line class="cls-2" x1="169.78" y1="92.99" x2="165.3" y2="89.38"/>
    <path class="cls-2" d="M181.51,104.43s-18.53,17.74-20.98,24.27-3.94,15.82-3.94,15.82l3.6,1.2s5.06-16.15,11.98-24.87c3.88-4.88,4.98-7.79,4.98-7.79"/>
    <path class="cls-2" d="M171.78,128.7s-6.5,5.93-6.5,11.93c0,7.19,5.39,6.29,5.39,6.29,0,0-7.19,11.98-4.19,15.58,3,3.6,7.49,3.6,7.49,3.6,0,0-1.44,13.24,1.52,15.76s8.36,2.22,8.36,2.22c0,0,0,5.09,3,7.19s6.2,1.76,6.2,1.76"/>
    <path class="cls-2" d="M184.61,76.7s-4.45,5.2-5,7.6"/>
    <path class="cls-2" d="M194.49,78.86s-4.85,3.04-5.79,6.34"/>
    <polyline class="cls-2" points="182.11 103.43 167.54 111.12 166.78 102.57 187.08 96.11"/>
  </g>
  <g class="cls-3">
    <g>
      <path class="cls-1" d="M428.67,400.09l-111.86,111.86s-55.93-55.93,0-111.86c55.93-55.93,111.86,0,111.86,0Z"/>
      <path class="cls-2" d="M292.36,435.74c-.55,4.92-.51,6.78-.04,11.35"/>
      <path class="cls-2" d="M294.4,422.48c-.52,1.84-.95,3.67-1.29,5.48"/>
      <path class="cls-2" d="M303.09,403.24c-2.32,3.67-4.23,7.32-5.76,10.93"/>
      <path class="cls-2" d="M322.56,380.95c-1.91,1.66-3.83,3.44-5.74,5.36-2.13,2.13-4.11,4.27-5.93,6.4"/>
      <path class="cls-2" d="M341.14,368.44c-2.72,1.33-5.45,2.88-8.2,4.66"/>
      <path class="cls-2" d="M367.21,361.54c-1.4,.07-2.8,.19-4.23,.36"/>
      <path class="cls-2" d="M392.89,365.06c-1.92-.62-3.9-1.18-5.93-1.66"/>
      <path class="cls-2" d="M428.67,400.09v-13.78s-9.54-9.52-24.63-16.77"/>
    </g>
    <path class="cls-2" d="M325.91,392s-6.84-9.03-1.2-16.18c4.49-5.69,14.82-.59,14.82-.59,0,0,1.66-14.99,10.65-16.79,8.99-1.8,15.58,5.99,15.58,5.99,0,0,3.46-10.28,13.78-8.99,7.19,.9,8.69,13.18,8.69,13.18,0,0,8.09-8.39,12.88-3.3,4.79,5.09,4.79,11.09,4.79,11.09,0,0,3.89-3.89,7.79,.3,5.22,5.62,1.5,8.69,1.5,8.69,0,0,5.39-.9,8.69,1.5s3.89,12.28,3.89,12.28"/>
    <path class="cls-2" d="M321.17,395.96s-13.24-5.16-19.23-4.26-16.13,11.66-16.45,12.57-15.3,16.49-15.3,16.49h4.4l.09,3.6,4.19-1.5,1.2,5.09,9.89-20.07s7.1-5.09,13.14-4.64,5.73,5.76,5.73,5.76"/>
    <line class="cls-2" x1="289.96" y1="407.88" x2="285.49" y2="404.27"/>
    <path class="cls-2" d="M301.7,419.32s-18.53,17.74-20.98,24.27-3.94,15.82-3.94,15.82l3.6,1.2s5.06-16.15,11.98-24.87c3.88-4.88,4.98-7.79,4.98-7.79"/>
    <path class="cls-2" d="M291.96,443.59s-6.5,5.93-6.5,11.93c0,7.19,5.39,6.29,5.39,6.29,0,0-7.19,11.98-4.19,15.58,3,3.6,7.49,3.6,7.49,3.6,0,0-1.44,13.24,1.52,15.76s8.36,2.22,8.36,2.22c0,0,0,5.09,3,7.19s6.2,1.76,6.2,1.76"/>
    <path class="cls-2" d="M304.79,391.59s-4.45,5.2-5,7.6"/>
    <path class="cls-2" d="M314.67,393.75s-4.85,3.04-5.79,6.34"/>
    <polyline class="cls-2" points="302.29 418.32 287.72 426.01 286.96 417.47 307.26 411"/>
  </g>
  <g class="cls-3">
    <g>
      <path class="cls-1" d="M670.06,71l-111.86,111.86s-55.93-55.93,0-111.86c55.93-55.93,111.86,0,111.86,0Z"/>
      <path class="cls-2" d="M533.74,106.65c-.55,4.92-.51,6.78-.04,11.35"/>
      <path class="cls-2" d="M535.79,93.4c-.52,1.84-.95,3.67-1.29,5.48"/>
      <path class="cls-2" d="M544.48,74.15c-2.32,3.67-4.23,7.32-5.76,10.93"/>
      <path class="cls-2" d="M563.95,51.86c-1.91,1.66-3.83,3.44-5.74,5.36-2.13,2.13-4.11,4.27-5.93,6.4"/>
      <path class="cls-2" d="M582.53,39.35c-2.72,1.33-5.45,2.88-8.2,4.66"/>
      <path class="cls-2" d="M608.6,32.45c-1.4,.07-2.8,.19-4.23,.36"/>
      <path class="cls-2" d="M634.28,35.97c-1.92-.62-3.9-1.18-5.93-1.66"/>
      <path class="cls-2" d="M670.06,71v-13.78s-9.54-9.52-24.63-16.77"/>
    </g>
    <path class="cls-2" d="M567.3,62.91s-6.84-9.03-1.2-16.18c4.49-5.69,14.82-.59,14.82-.59,0,0,1.66-14.99,10.65-16.79,8.99-1.8,15.58,5.99,15.58,5.99,0,0,3.46-10.28,13.78-8.99,7.19,.9,8.69,13.18,8.69,13.18,0,0,8.09-8.39,12.88-3.3,4.79,5.09,4.79,11.09,4.79,11.09,0,0,3.89-3.89,7.79,.3,5.22,5.62,1.5,8.69,1.5,8.69,0,0,5.39-.9,8.69,1.5s3.89,12.28,3.89,12.28"/>
    <path class="cls-2" d="M562.56,66.87s-13.24-5.16-19.23-4.26-16.13,11.66-16.45,12.57-15.3,16.49-15.3,16.49h4.4l.09,3.6,4.19-1.5,1.2,5.09,9.89-20.07s7.1-5.09,13.14-4.64,5.73,5.76,5.73,5.76"/>
    <line class="cls-2" x1="531.35" y1="78.79" x2="526.88" y2="75.18"/>
    <path class="cls-2" d="M543.08,90.23s-18.53,17.74-20.98,24.27-3.94,15.82-3.94,15.82l3.6,1.2s5.06-16.15,11.98-24.87c3.88-4.88,4.98-7.79,4.98-7.79"/>
    <path class="cls-2" d="M533.35,114.5s-6.5,5.93-6.5,11.93c0,7.19,5.39,6.29,5.39,6.29,0,0-7.19,11.98-4.19,15.58s7.49,3.6,7.49,3.6c0,0-1.44,13.24,1.52,15.76s8.36,2.22,8.36,2.22c0,0,0,5.09,3,7.19s6.2,1.76,6.2,1.76"/>
    <path class="cls-2" d="M546.18,62.51s-4.45,5.2-5,7.6"/>
    <path class="cls-2" d="M556.06,64.66s-4.85,3.04-5.79,6.34"/>
    <polyline class="cls-2" points="543.68 89.23 529.11 96.92 528.35 88.38 548.65 81.92"/>
  </g>
  <g class="cls-3">
    <g>
      <path class="cls-1" d="M865.75,400.89l-111.86,111.86s-55.93-55.93,0-111.86c55.93-55.93,111.86,0,111.86,0Z"/>
      <path class="cls-2" d="M729.43,436.55c-.55,4.92-.51,6.78-.04,11.35"/>
      <path class="cls-2" d="M731.48,423.29c-.52,1.84-.95,3.67-1.29,5.48"/>
      <path class="cls-2" d="M740.17,404.04c-2.32,3.67-4.23,7.32-5.76,10.93"/>
      <path class="cls-2" d="M759.64,381.75c-1.91,1.66-3.83,3.44-5.74,5.36-2.13,2.13-4.11,4.27-5.93,6.4"/>
      <path class="cls-2" d="M778.22,369.24c-2.72,1.33-5.45,2.88-8.2,4.66"/>
      <path class="cls-2" d="M804.29,362.35c-1.4,.07-2.8,.19-4.23,.36"/>
      <path class="cls-2" d="M829.97,365.87c-1.92-.62-3.9-1.18-5.93-1.66"/>
      <path class="cls-2" d="M865.75,400.89v-13.78s-9.54-9.52-24.63-16.77"/>
    </g>
    <path class="cls-2" d="M762.99,392.8s-6.84-9.03-1.2-16.18c4.49-5.69,14.82-.59,14.82-.59,0,0,1.66-14.99,10.65-16.79,8.99-1.8,15.58,5.99,15.58,5.99,0,0,3.46-10.28,13.78-8.99,7.19,.9,8.69,13.18,8.69,13.18,0,0,8.09-8.39,12.88-3.3,4.79,5.09,4.79,11.09,4.79,11.09,0,0,3.89-3.89,7.79,.3,5.22,5.62,1.5,8.69,1.5,8.69,0,0,5.39-.9,8.69,1.5s3.89,12.28,3.89,12.28"/>
    <path class="cls-2" d="M758.25,396.76s-13.24-5.16-19.23-4.26c-5.99,.9-16.13,11.66-16.45,12.57s-15.3,16.49-15.3,16.49h4.4l.09,3.6,4.19-1.5,1.2,5.09,9.89-20.07s7.1-5.09,13.14-4.64,5.73,5.76,5.73,5.76"/>
    <line class="cls-2" x1="727.04" y1="408.68" x2="722.56" y2="405.08"/>
    <path class="cls-2" d="M738.77,420.12s-18.53,17.74-20.98,24.27-3.94,15.82-3.94,15.82l3.6,1.2s5.06-16.15,11.98-24.87c3.88-4.88,4.98-7.79,4.98-7.79"/>
    <path class="cls-2" d="M729.04,444.39s-6.5,5.93-6.5,11.93c0,7.19,5.39,6.29,5.39,6.29,0,0-7.19,11.98-4.19,15.58s7.49,3.6,7.49,3.6c0,0-1.44,13.24,1.52,15.76s8.36,2.22,8.36,2.22c0,0,0,5.09,3,7.19s6.2,1.76,6.2,1.76"/>
    <path class="cls-2" d="M741.87,392.4s-4.45,5.2-5,7.6"/>
    <path class="cls-2" d="M751.75,394.55s-4.85,3.04-5.79,6.34"/>
    <polyline class="cls-2" points="739.37 419.12 724.8 426.81 724.04 418.27 744.34 411.81"/>
  </g>
  <g class="cls-3">
    <path class="cls-2" d="M876.71,969.88l-101.89-29.12-2.06,7.22c-1.52,5.3,1.43,10.8,6.58,12.27l82.4,23.55c5.61,1.6,11.51-1.78,13.16-7.57l1.81-6.35"/>
    <path class="cls-2" d="M774.82,940.76s-10.52-4.86-10.3-6.82c.22-1.96,4.23-5.27,4.23-5.27,0,0-3.17-3.19-1.49-5.51s11.06-4.2,11.06-4.2c0,0,2.88,5.38,6.7,7.52s12.23-3.51,12.23-3.51c0,0,3.05,13.13,11.43,12.38,8.38-.76,12.97-6.1,12.97-6.1,0,0,1.26,12.27,10.84,13.26,9.58,.99,16.53-5.44,16.53-5.44,0,0,4.71,13.26,15.68,15.34s14.99-6.58,14.99-6.58c0,0,1.57,8.16,5.4,7.85s6.85-6.1,6.85-6.1c0,0,11.06,1.76,12.62,4.66,1.55,2.9-9.06-15.9-15.17-18.35s-31.02-16.43-51.15-22.18-54.46-9.4-54.46-9.4l-25.49,7.08s12.76,2.95,18.8,3.27l1.26,6.32"/>
    <path class="cls-2" d="M777.07,912.65s23.92-1.57,58.81,10.85c34.89,12.42,56.05,24.08,56.05,24.08"/>
    <path class="cls-2" d="M885.08,953.68s3.13,3.35,2.16,5.52c-.96,2.18-1.19,5.34-.46,6.39s-1.2,4.19-3.76,4.24-6.31,.06-6.31,.06"/>
    <path class="cls-2" d="M783.77,902.3s-4.85-8.04-.27-16.9c4.57-8.85,26.91-27.5,66.85-16.09,39.94,11.41,56.39,45.12,53.84,54.43-2.55,9.31-13.79,10.66-13.79,10.66"/>
  </g>
  <g class="cls-3">
    <path class="cls-2" d="M619.56,602.59l-101.89-29.12-2.06,7.22c-1.52,5.3,1.43,10.8,6.58,12.27l82.4,23.55c5.61,1.6,11.51-1.78,13.16-7.57l1.81-6.35"/>
    <path class="cls-2" d="M517.67,573.47s-10.52-4.86-10.3-6.82c.22-1.96,4.23-5.27,4.23-5.27,0,0-3.17-3.19-1.49-5.51s11.06-4.2,11.06-4.2c0,0,2.88,5.38,6.7,7.52,3.81,2.14,12.23-3.51,12.23-3.51,0,0,3.05,13.13,11.43,12.38,8.38-.76,12.97-6.1,12.97-6.1,0,0,1.26,12.27,10.84,13.26,9.58,.99,16.53-5.44,16.53-5.44,0,0,4.71,13.26,15.68,15.34,10.97,2.08,14.99-6.58,14.99-6.58,0,0,1.57,8.16,5.4,7.85s6.85-6.1,6.85-6.1c0,0,11.06,1.76,12.62,4.66s-9.06-15.9-15.17-18.35-31.02-16.43-51.15-22.18c-20.13-5.75-54.46-9.4-54.46-9.4l-25.49,7.08s12.76,2.95,18.8,3.27l1.26,6.32"/>
    <path class="cls-2" d="M519.92,545.36s23.92-1.57,58.81,10.85c34.89,12.42,56.05,24.08,56.05,24.08"/>
    <path class="cls-2" d="M627.93,586.39s3.13,3.35,2.16,5.52c-.96,2.18-1.19,5.34-.46,6.39s-1.2,4.19-3.76,4.24-6.31,.06-6.31,.06"/>
    <path class="cls-2" d="M526.62,535.01s-4.85-8.04-.27-16.9c4.57-8.85,26.91-27.5,66.85-16.09,39.94,11.41,56.39,45.12,53.84,54.43-2.55,9.31-13.79,10.66-13.79,10.66"/>
  </g>
  <g class="cls-3">
    <path class="cls-2" d="M391.56,974.59l-101.89-29.12-2.06,7.22c-1.52,5.3,1.43,10.8,6.58,12.27l82.4,23.55c5.61,1.6,11.51-1.78,13.16-7.57l1.81-6.35"/>
    <path class="cls-2" d="M289.67,945.47s-10.52-4.86-10.3-6.82c.22-1.96,4.23-5.27,4.23-5.27,0,0-3.17-3.19-1.49-5.51s11.06-4.2,11.06-4.2c0,0,2.88,5.38,6.7,7.52,3.81,2.14,12.23-3.51,12.23-3.51,0,0,3.05,13.13,11.43,12.38,8.38-.76,12.97-6.1,12.97-6.1,0,0,1.26,12.27,10.84,13.26,9.58,.99,16.53-5.44,16.53-5.44,0,0,4.71,13.26,15.68,15.34,10.97,2.08,14.99-6.58,14.99-6.58,0,0,1.57,8.16,5.4,7.85s6.85-6.1,6.85-6.1c0,0,11.06,1.76,12.62,4.66s-9.06-15.9-15.17-18.35-31.02-16.43-51.15-22.18c-20.13-5.75-54.46-9.4-54.46-9.4l-25.49,7.08s12.76,2.95,18.8,3.27l1.26,6.32"/>
    <path class="cls-2" d="M291.92,917.36s23.92-1.57,58.81,10.85c34.89,12.42,56.05,24.08,56.05,24.08"/>
    <path class="cls-2" d="M399.93,958.39s3.13,3.35,2.16,5.52c-.96,2.18-1.19,5.34-.46,6.39s-1.2,4.19-3.76,4.24-6.31,.06-6.31,.06"/>
    <path class="cls-2" d="M298.62,907.01s-4.85-8.04-.27-16.9c4.57-8.85,26.91-27.5,66.85-16.09,39.94,11.41,56.39,45.12,53.84,54.43-2.55,9.31-13.79,10.66-13.79,10.66"/>
  </g>
  <g class="cls-3">
    <path class="cls-2" d="M159.56,686.59l-101.89-29.12-2.06,7.22c-1.52,5.3,1.43,10.8,6.58,12.27l82.4,23.55c5.61,1.6,11.51-1.78,13.16-7.57l1.81-6.35"/>
    <path class="cls-2" d="M57.67,657.47s-10.52-4.86-10.3-6.82c.22-1.96,4.23-5.27,4.23-5.27,0,0-3.17-3.19-1.49-5.51s11.06-4.2,11.06-4.2c0,0,2.88,5.38,6.7,7.52,3.81,2.14,12.23-3.51,12.23-3.51,0,0,3.05,13.13,11.43,12.38,8.38-.76,12.97-6.1,12.97-6.1,0,0,1.26,12.27,10.84,13.26,9.58,.99,16.53-5.44,16.53-5.44,0,0,4.71,13.26,15.68,15.34,10.97,2.08,14.99-6.58,14.99-6.58,0,0,1.57,8.16,5.4,7.85s6.85-6.1,6.85-6.1c0,0,11.06,1.76,12.62,4.66s-9.06-15.9-15.17-18.35-31.02-16.43-51.15-22.18c-20.13-5.75-54.46-9.4-54.46-9.4l-25.49,7.08s12.76,2.95,18.8,3.27l1.26,6.32"/>
    <path class="cls-2" d="M59.92,629.36s23.92-1.57,58.81,10.85c34.89,12.42,56.05,24.08,56.05,24.08"/>
    <path class="cls-2" d="M167.93,670.39s3.13,3.35,2.16,5.52c-.96,2.18-1.19,5.34-.46,6.39s-1.2,4.19-3.76,4.24-6.31,.06-6.31,.06"/>
    <path class="cls-2" d="M66.62,619.01s-4.85-8.04-.27-16.9c4.57-8.85,26.91-27.5,66.85-16.09,39.94,11.41,56.39,45.12,53.84,54.43-2.55,9.31-13.79,10.66-13.79,10.66"/>
  </g>
  <g class="cls-3">
    <path class="cls-2" d="M871.69,22.6l-10.25,3.51,1.1,3.21,5.41,3.12s7.4,30,9.26,41.42c4.77,29.21,1.03,21.5,2.92,43.65,.64,7.47,13.35,45.74,18.88,54.34s8.1,18.76,8.1,18.76l19.8-6.78h-.04s20.69-7.07,20.69-7.07c0,0-3.99-8.72-4.89-18.91-.9-10.19-15.42-48.79-19.49-55.08-12.09-18.66-10.31-10.27-24.46-36.28-5.53-10.17-18.08-38.41-18.08-38.41l2.36-5.78-1.1-3.21-10.25,3.51"/>
    <path class="cls-2" d="M893.83,115.43l-1.47,7.48c-1.61,8.18,6.25,15.04,14.14,12.33l7.21-2.47c7.89-2.7,9.9-12.93,3.61-18.41l-5.74-5.01c-6.29-5.48-16.15-2.1-17.75,6.08Z"/>
  </g>
  <g class="cls-3">
    <path class="cls-2" d="M583.69,770.6l-10.25,3.51,1.1,3.21,5.41,3.12s7.4,30,9.26,41.42c4.77,29.21,1.03,21.5,2.92,43.65,.64,7.47,13.35,45.74,18.88,54.34s8.1,18.76,8.1,18.76l19.8-6.78h-.04s20.69-7.07,20.69-7.07c0,0-3.99-8.72-4.89-18.91-.9-10.19-15.42-48.79-19.49-55.08-12.09-18.66-10.31-10.27-24.46-36.28-5.53-10.17-18.08-38.41-18.08-38.41l2.36-5.78-1.1-3.21-10.25,3.51"/>
    <path class="cls-2" d="M605.83,863.43l-1.47,7.48c-1.61,8.18,6.25,15.04,14.14,12.33l7.21-2.47c7.89-2.7,9.9-12.93,3.61-18.41l-5.74-5.01c-6.29-5.48-16.15-2.1-17.75,6.08Z"/>
  </g>
  <g class="cls-3">
    <path class="cls-2" d="M311.69,590.6l-10.25,3.51,1.1,3.21,5.41,3.12s7.4,30,9.26,41.42c4.77,29.21,1.03,21.5,2.92,43.65,.64,7.47,13.35,45.74,18.88,54.34s8.1,18.76,8.1,18.76l19.8-6.78h-.04s20.69-7.07,20.69-7.07c0,0-3.99-8.72-4.89-18.91-.9-10.19-15.42-48.79-19.49-55.08-12.09-18.66-10.31-10.27-24.46-36.28-5.53-10.17-18.08-38.41-18.08-38.41l2.36-5.78-1.1-3.21-10.25,3.51"/>
    <path class="cls-2" d="M333.83,683.43l-1.47,7.48c-1.61,8.18,6.25,15.04,14.14,12.33l7.21-2.47c7.89-2.7,9.9-12.93,3.61-18.41l-5.74-5.01c-6.29-5.48-16.15-2.1-17.75,6.08Z"/>
  </g>
  <g class="cls-3">
    <rect class="cls-2" x="673.78" y="230.83" width="82.24" height="65.83" transform="translate(281.93 890.79) rotate(-75.63)"/>
    <path class="cls-2" d="M744,228.75l-13.68-25.16s34.26-6.11,41.3,13.97-11.93,36.16-11.93,36.16l-6.02-8.65"/>
    <path class="cls-2" d="M691.15,222.98s9.48-3.12,22.96,5.88c13.47,9.01,26.25,11.14,33.41,11.45l7.15,.31"/>
    <path class="cls-2" d="M734.14,210.62s26.56,1.73,29.45,7.55c8.46,17.02-7.71,30.08-7.71,30.08"/>
    <path class="cls-2" d="M723.97,290.46l-10.57-4.89c-1.97-.91-2.83-3.14-1.93-4.98l4.85-9.89c.9-1.84,3.23-2.6,5.2-1.68l10.57,4.89c1.97,.91,2.83,3.14,1.93,4.98l-4.85,9.89c-.9,1.84-3.23,2.6-5.2,1.68Z"/>
    <path class="cls-2" d="M714.57,267.97l-15.12,6.36c-1.96,.82-4.3-.03-5.22-1.92l-7.19-14.62c-.93-1.88-.09-4.08,1.87-4.9l15.12-6.36c1.96-.82,4.3,.03,5.22,1.92l7.19,14.62c.93,1.88,.09,4.08-1.87,4.9Z"/>
    <path class="cls-2" d="M748.35,253.12l-8.21,13.59c-1.06,1.76-3.46,2.33-5.34,1.27l-14.66-8.24c-1.89-1.06-2.55-3.35-1.49-5.11l8.21-13.59c1.06-1.76,3.46-2.33,5.34-1.27l14.66,8.24c1.89,1.06,2.55,3.35,1.49,5.11Z"/>
    <line class="cls-2" x1="740.35" y1="296.48" x2="676.72" y2="280.17"/>
  </g>
  <g class="cls-3">
    <rect class="cls-2" x="70.78" y="315.83" width="82.24" height="65.83" transform="translate(-253.71 370.56) rotate(-75.63)"/>
    <path class="cls-2" d="M141,313.75l-13.68-25.16s34.26-6.11,41.3,13.97-11.93,36.16-11.93,36.16l-6.02-8.65"/>
    <path class="cls-2" d="M88.15,307.98s9.48-3.12,22.96,5.88c13.47,9.01,26.25,11.14,33.41,11.45l7.15,.31"/>
    <path class="cls-2" d="M131.14,295.62s26.56,1.73,29.45,7.55c8.46,17.02-7.71,30.08-7.71,30.08"/>
    <path class="cls-2" d="M120.97,375.46l-10.57-4.89c-1.97-.91-2.83-3.14-1.93-4.98l4.85-9.89c.9-1.84,3.23-2.6,5.2-1.68l10.57,4.89c1.97,.91,2.83,3.14,1.93,4.98l-4.85,9.89c-.9,1.84-3.23,2.6-5.2,1.68Z"/>
    <path class="cls-2" d="M111.57,352.97l-15.12,6.36c-1.96,.82-4.3-.03-5.22-1.92l-7.19-14.62c-.93-1.88-.09-4.08,1.87-4.9l15.12-6.36c1.96-.82,4.3,.03,5.22,1.92l7.19,14.62c.93,1.88,.09,4.08-1.87,4.9Z"/>
    <path class="cls-2" d="M145.35,338.12l-8.21,13.59c-1.06,1.76-3.46,2.33-5.34,1.27l-14.66-8.24c-1.89-1.06-2.55-3.35-1.49-5.11l8.21-13.59c1.06-1.76,3.46-2.33,5.34-1.27l14.66,8.24c1.89,1.06,2.55,3.35,1.49,5.11Z"/>
    <line class="cls-2" x1="137.35" y1="381.48" x2="73.72" y2="365.17"/>
  </g>
  <g class="cls-3">
    <rect class="cls-2" x="803.93" y="646.58" width="82.24" height="65.83" transform="translate(-22.97 1329.4) rotate(-75.63)"/>
    <path class="cls-2" d="M874.15,644.5l-13.68-25.16s34.26-6.11,41.3,13.97c7.04,20.08-11.93,36.16-11.93,36.16l-6.02-8.65"/>
    <path class="cls-2" d="M821.3,638.73s9.48-3.12,22.96,5.88c13.47,9.01,26.25,11.14,33.41,11.45l7.15,.31"/>
    <path class="cls-2" d="M864.29,626.36s26.56,1.73,29.45,7.55c8.46,17.02-7.71,30.08-7.71,30.08"/>
    <path class="cls-2" d="M854.12,706.21l-10.57-4.89c-1.97-.91-2.83-3.14-1.93-4.98l4.85-9.89c.9-1.84,3.23-2.6,5.2-1.68l10.57,4.89c1.97,.91,2.83,3.14,1.93,4.98l-4.85,9.89c-.9,1.84-3.23,2.6-5.2,1.68Z"/>
    <path class="cls-2" d="M844.72,683.72l-15.12,6.36c-1.96,.82-4.3-.03-5.22-1.92l-7.19-14.62c-.93-1.88-.09-4.08,1.87-4.9l15.12-6.36c1.96-.82,4.3,.03,5.22,1.92l7.19,14.62c.93,1.88,.09,4.08-1.87,4.9Z"/>
    <path class="cls-2" d="M878.5,668.86l-8.21,13.59c-1.06,1.76-3.46,2.33-5.34,1.27l-14.66-8.24c-1.89-1.06-2.55-3.35-1.49-5.11l8.21-13.59c1.06-1.76,3.46-2.33,5.34-1.27l14.66,8.24c1.89,1.06,2.55,3.35,1.49,5.11Z"/>
    <line class="cls-2" x1="870.5" y1="712.22" x2="806.87" y2="695.91"/>
  </g>
  <g class="cls-3">
    <rect class="cls-2" x="41.93" y="880.58" width="82.24" height="65.83" transform="translate(-822.46 767.16) rotate(-75.63)"/>
    <path class="cls-2" d="M112.15,878.5l-13.68-25.16s34.26-6.11,41.3,13.97c7.04,20.08-11.93,36.16-11.93,36.16l-6.02-8.65"/>
    <path class="cls-2" d="M59.3,872.73s9.48-3.12,22.96,5.88c13.47,9.01,26.25,11.14,33.41,11.45l7.15,.31"/>
    <path class="cls-2" d="M102.29,860.36s26.56,1.73,29.45,7.55c8.46,17.02-7.71,30.08-7.71,30.08"/>
    <path class="cls-2" d="M92.12,940.21l-10.57-4.89c-1.97-.91-2.83-3.14-1.93-4.98l4.85-9.89c.9-1.84,3.23-2.6,5.2-1.68l10.57,4.89c1.97,.91,2.83,3.14,1.93,4.98l-4.85,9.89c-.9,1.84-3.23,2.6-5.2,1.68Z"/>
    <path class="cls-2" d="M82.72,917.72l-15.12,6.36c-1.96,.82-4.3-.03-5.22-1.92l-7.19-14.62c-.93-1.88-.09-4.08,1.87-4.9l15.12-6.36c1.96-.82,4.3,.03,5.22,1.92l7.19,14.62c.93,1.88,.09,4.08-1.87,4.9Z"/>
    <path class="cls-2" d="M116.5,902.86l-8.21,13.59c-1.06,1.76-3.46,2.33-5.34,1.27l-14.66-8.24c-1.89-1.06-2.55-3.35-1.49-5.11l8.21-13.59c1.06-1.76,3.46-2.33,5.34-1.27l14.66,8.24c1.89,1.06,2.55,3.35,1.49,5.11Z"/>
    <line class="cls-2" x1="108.5" y1="946.22" x2="44.87" y2="929.91"/>
  </g>
</svg>