<svg width="40" height="20" viewBox="0 0 40 20" fill="none" xmlns="http://www.w3.org/2000/svg">
<g id="Frame 1" clip-path="url(#clip0_1_2)">
<circle id="Ellipse" cx="10" cy="10" r="10" fill="white"/>
<path id="GF" d="M9.02273 9C8.92898 8.71307 8.8054 8.45597 8.65199 8.22869C8.50142 7.99858 8.32102 7.80256 8.1108 7.64062C7.90341 7.47869 7.66761 7.35511 7.40341 7.26989C7.1392 7.18466 6.84943 7.14205 6.53409 7.14205C6.01705 7.14205 5.54688 7.27557 5.12358 7.54261C4.70028 7.80966 4.36364 8.20312 4.11364 8.72301C3.86364 9.2429 3.73864 9.88068 3.73864 10.6364C3.73864 11.392 3.86506 12.0298 4.1179 12.5497C4.37074 13.0696 4.71307 13.4631 5.14489 13.7301C5.5767 13.9972 6.0625 14.1307 6.60227 14.1307C7.10227 14.1307 7.54261 14.0241 7.9233 13.8111C8.30682 13.5952 8.60511 13.2912 8.81818 12.8991C9.03409 12.5043 9.14205 12.0398 9.14205 11.5057L9.46591 11.5739H6.84091V10.6364H10.1648V11.5739C10.1648 12.2926 10.0114 12.9176 9.70455 13.4489C9.40057 13.9801 8.98011 14.392 8.44318 14.6847C7.90909 14.9744 7.29545 15.1193 6.60227 15.1193C5.82955 15.1193 5.15057 14.9375 4.56534 14.5739C3.98295 14.2102 3.52841 13.6932 3.2017 13.0227C2.87784 12.3523 2.71591 11.5568 2.71591 10.6364C2.71591 9.94602 2.80824 9.32528 2.9929 8.77415C3.1804 8.22017 3.4446 7.74858 3.78551 7.35938C4.12642 6.97017 4.52983 6.67188 4.99574 6.46449C5.46165 6.2571 5.97443 6.15341 6.53409 6.15341C6.99432 6.15341 7.4233 6.22301 7.82102 6.36222C8.22159 6.49858 8.57812 6.69318 8.89062 6.94602C9.20597 7.19602 9.46875 7.49574 9.67898 7.84517C9.8892 8.19176 10.0341 8.5767 10.1136 9H9.02273ZM11.9748 15V6.27273H17.2077V7.21023H13.0316V10.1591H16.8157V11.0966H13.0316V15H11.9748Z" fill="black"/>
<circle id="Ellipse_2" cx="30" cy="10" r="9.5" stroke="white"/>
<path id="VG" d="M23.4148 6.27273L26.0057 13.6193H26.108L28.6989 6.27273H29.8068L26.6023 15H25.5114L22.3068 6.27273H23.4148ZM36.7219 9C36.6282 8.71307 36.5046 8.45597 36.3512 8.22869C36.2006 7.99858 36.0202 7.80256 35.81 7.64062C35.6026 7.47869 35.3668 7.35511 35.1026 7.26989C34.8384 7.18466 34.5487 7.14205 34.2333 7.14205C33.7163 7.14205 33.2461 7.27557 32.8228 7.54261C32.3995 7.80966 32.0629 8.20312 31.8129 8.72301C31.5629 9.2429 31.4379 9.88068 31.4379 10.6364C31.4379 11.392 31.5643 12.0298 31.8171 12.5497C32.07 13.0696 32.4123 13.4631 32.8441 13.7301C33.2759 13.9972 33.7617 14.1307 34.3015 14.1307C34.8015 14.1307 35.2418 14.0241 35.6225 13.8111C36.006 13.5952 36.3043 13.2912 36.5174 12.8991C36.7333 12.5043 36.8413 12.0398 36.8413 11.5057L37.1651 11.5739H34.5401V10.6364H37.864V11.5739C37.864 12.2926 37.7106 12.9176 37.4038 13.4489C37.0998 13.9801 36.6793 14.392 36.1424 14.6847C35.6083 14.9744 34.9947 15.1193 34.3015 15.1193C33.5288 15.1193 32.8498 14.9375 32.2646 14.5739C31.6822 14.2102 31.2276 13.6932 30.9009 13.0227C30.5771 12.3523 30.4151 11.5568 30.4151 10.6364C30.4151 9.94602 30.5075 9.32528 30.6921 8.77415C30.8796 8.22017 31.1438 7.74858 31.4847 7.35938C31.8256 6.97017 32.229 6.67188 32.695 6.46449C33.1609 6.2571 33.6737 6.15341 34.2333 6.15341C34.6935 6.15341 35.1225 6.22301 35.5202 6.36222C35.9208 6.49858 36.2773 6.69318 36.5898 6.94602C36.9052 7.19602 37.168 7.49574 37.3782 7.84517C37.5884 8.19176 37.7333 8.5767 37.8129 9H36.7219Z" fill="white"/>
</g>
<defs>
<clipPath id="clip0_1_2">
<rect width="40" height="20" fill="white"/>
</clipPath>
</defs>
</svg>
