<?xml version="1.0" encoding="UTF-8"?>
<svg id="Layer_1" data-name="Layer 1" xmlns="http://www.w3.org/2000/svg" xmlns:xlink="http://www.w3.org/1999/xlink" viewBox="0 0 405.5 396.5">
  <defs>
    <style>
      .cls-1 {
        fill: #fff;
      }

      .cls-2 {
        filter: url(#outer-glow-3);
      }

      .cls-3 {
        fill: url(#radial-gradient);
        filter: url(#outer-glow-1);
      }

      .cls-3, .cls-4 {
        stroke: #fff;
        stroke-miterlimit: 10;
        stroke-width: 2px;
      }

      .cls-4 {
        fill: none;
        filter: url(#outer-glow-2);
      }
    </style>
    <radialGradient id="radial-gradient" cx="205.68" cy="201.94" fx="205.68" fy="201.94" r="164.87" gradientUnits="userSpaceOnUse">
      <stop offset="0" stop-color="#699"/>
      <stop offset="1" stop-color="#9ff"/>
    </radialGradient>
    <filter id="outer-glow-1" filterUnits="userSpaceOnUse">
      <feOffset dx="0" dy="0"/>
      <feGaussianBlur result="blur" stdDeviation="18"/>
      <feFlood flood-color="#cef4ef" flood-opacity=".75"/>
      <feComposite in2="blur" operator="in"/>
      <feComposite in="SourceGraphic"/>
    </filter>
    <filter id="outer-glow-2" filterUnits="userSpaceOnUse">
      <feOffset dx="0" dy="0"/>
      <feGaussianBlur result="blur-2" stdDeviation="3"/>
      <feFlood flood-color="#fff" flood-opacity=".82"/>
      <feComposite in2="blur-2" operator="in"/>
      <feComposite in="SourceGraphic"/>
    </filter>
    <filter id="outer-glow-3" filterUnits="userSpaceOnUse">
      <feOffset dx="0" dy="0"/>
      <feGaussianBlur result="blur-3" stdDeviation="17"/>
      <feFlood flood-color="red" flood-opacity="1"/>
      <feComposite in2="blur-3" operator="in"/>
      <feComposite in="SourceGraphic"/>
    </filter>
  </defs>
  <path class="cls-3" d="M46,93s98-58,186-55,135.68,56.72,139,101c9,120-153,197-153,197l6,30-161-8,122-119,9,23s33.11-16.58,20-36c-27-40-174,44-174,44,0,0,12-61,12-96s-6-81-6-81Z"/>
  <path class="cls-4" d="M109.79,340.3l67.58-65.92,5.99,15.31,19.59-9.81c4.54-2.27,27.48-14.68,32.93-35.49,2.64-10.08,.76-20.59-5.31-29.58-6.04-8.95-18.5-19.61-43.57-19.61s-58,9.81-100.9,29.17c-6.96,3.14-13.57,6.27-19.66,9.24,2.87-19.45,5.54-42.26,5.54-59.61,0-24.36-2.73-53.27-4.56-69.94,26.45-13.83,95.03-46.18,157.88-46.18,2.04,0,4,.03,5.99,.1,45.22,1.54,73.45,17.4,89.17,30.43,17.8,14.75,29.22,34.22,30.56,52.08,7.86,104.79-140.16,176.73-141.66,177.45l-14.04,6.71,3.04,15.27,.97,4.83-89.57-4.45Z"/>
  <g class="cls-2">
    <path class="cls-1" d="M242.71,157.95c-.04-.14-.89-3.61,1.19-8.65,.9-2.18,2.36-4.47,3.76-6.68,2-3.14,4.29-6.75,4.74-10.35,2.64-2.25,10.93-7.79,15.45-7.79,.05,0,.1,0,.15,0,.3,0,.52,.04,.68,.09-.42,2.18-3.62,7.38-5.59,10.59-5.51,8.97-11.21,18.24-5.48,23.97,1.54,1.54,3.2,2.03,4.75,2.03,1.98,0,3.78-.81,4.9-1.31,.4-.18,.98-.44,1.3-.54,1.96,.42,3.96-.69,4.6-2.63,.69-2.08-.43-4.33-2.51-5.03-2.62-.87-4.95,.18-6.66,.95-.25,.11-.56,.25-.85,.37-.02-2.69,4.47-9.99,6.71-13.65,4.96-8.07,9.24-15.04,5.25-19.7-1.33-1.55-3.82-3.34-8.08-3.07-5.74,.36-13.05,4.59-17.56,7.94-1.17-1-2.9-1.91-5.41-2.04-5.04-.25-11.43,3.07-15.79,5.93-.5-.64-1.13-1.23-1.89-1.78-4.72-3.37-11.63,1.26-24.45,10.46-.24,.18-.49,.35-.75,.54-1.34-.62-2.72-.96-4.04-.96-3.5,0-11.64,2.16-14.57,7.16-.87,1.5-1.22,3.1-1.03,4.7-.64,.21-1.23,.58-1.72,1.11-.49,.54-4.37,5.01-4.44,10.44-2.49,1.29-5.04-.09-6.77-1.5,7.66-9.92,14.68-20.82,19.81-29.3,7.21-2.9,16.39-6.07,27.67-9.04,33.35-8.78,57.02-11.09,57.26-11.11,2.19-.21,3.79-2.15,3.58-4.33-.21-2.18-2.12-3.79-4.33-3.58-.98,.09-24.5,2.38-58.54,11.33-7.26,1.91-13.67,3.9-19.29,5.85,.85-1.5,1.46-2.62,1.8-3.25,1.05-1.93,.34-4.34-1.59-5.39-1.93-1.05-4.34-.34-5.39,1.59-1.66,3.06-3.94,7.05-6.64,11.55-12.93,5.4-19.13,9.71-19.53,9.99-1.79,1.26-2.22,3.74-.96,5.53,.77,1.1,2,1.69,3.25,1.69,.79,0,1.58-.23,2.28-.72,.06-.04,2.42-1.67,7.24-4.14-11.83,18.16-27.23,38.37-38.01,41.51-.57,.17-1.01,.26-1.34,.31,.11-2.72,2.36-9.2,4.06-14.08,.7-2.01,1.43-4.12,2.16-6.29,2.55-7.64,9.57-19.06,15.77-29.13,9.45-15.35,12.64-20.86,11.08-24.77-1.04-2.6-3.97-4.38-8.27-5.01-12.41-1.84-33.16,5.56-54.18,31.83-28.36,35.45-16.41,58.65-13.73,62.94,2.75,4.4,6.35,5.67,8.88,5.96,.45,.05,.9,.08,1.35,.08,5.03,0,10.73-3.06,16.59-8.92,4.45-4.45,7.91-6.44,9.8-7.29,.16,.21,.33,.42,.52,.61,3.11,3.27,7.94,1.87,9.52,1.4,7.55-2.2,16.07-10.01,24.2-19.65,.76,.61,1.64,1.24,2.61,1.8,2.39,1.38,4.79,2.06,7.13,2.06,1.67,0,3.29-.36,4.85-1.05,.97,1.07,2.26,2.12,3.97,3.05,2.7,1.47,5.48,2.22,8.22,2.22,1.81,0,3.61-.32,5.36-.98,6.82-2.54,11.49-9.41,13.58-15,1.67-4.46,.91-9.5-2.08-13.83,4.71-3.38,11.67-8.31,14.7-9.33,.11,1.09-.63,4.06-6.06,12.07-1.01,1.48-1.73,2.55-2.17,3.43-3.11,6.22-2.7,11.84-2.65,12.46,.2,2.19,2.13,3.8,4.32,3.6,2.19-.2,3.8-2.13,3.6-4.32,0-.04-.29-3.93,1.84-8.19,.2-.4,.96-1.53,1.64-2.52,2.25-3.31,5.53-8.16,6.85-12.84,2.08-1.8,10.37-7.19,14.31-6.96,.25,.01,.56,.06,.64,.16,.89,1.09-1.47,4.81-3.37,7.79-1.52,2.39-3.24,5.1-4.41,7.93-3.14,7.63-1.67,13.23-1.49,13.85,.51,1.74,2.11,2.89,3.84,2.89,.36,0,.73-.05,1.1-.16,2.11-.61,3.33-2.79,2.71-4.9Zm-108.14-3.8c-.71,2.14-1.44,4.22-2.13,6.19-1.94,5.56-3.55,10.18-4.18,13.93-2.38,.76-7.59,3.05-14.28,9.74-4.42,4.42-8.69,6.88-11.42,6.57-.75-.09-1.88-.41-3.04-2.27-1.34-2.14-12.34-21.84,13.2-53.76,18.99-23.74,36.3-29.2,44.59-29.2,1.62,0,2.89,.21,3.77,.53-1.31,3.43-6.24,11.44-9.96,17.49-6.42,10.44-13.7,22.27-16.54,30.78Zm67.37-.14c-1.52,4.06-4.87,8.84-8.91,10.34-2.24,.83-4.53,.58-7.01-.77-2.38-1.3-2.58-2.48-2.65-2.87-.37-2.13,1.63-4.97,2.36-5.8,.23-.25,.41-.52,.56-.81,3.36,.58,7.67-1.79,14.53-6.54,.73,1.08,2.15,3.7,1.12,6.44Z"/>
    <path class="cls-1" d="M274.03,147.9c-.43,2.15,.96,4.24,3.12,4.68,.26,.05,.53,.08,.79,.08,1.85,0,3.51-1.31,3.89-3.19,0-.04,.87-4.3,2.27-8.39,1-2.94,6.29-12.46,9.39-17.77,1.11-1.9,.46-4.33-1.43-5.44-1.9-1.11-4.33-.46-5.43,1.43-.86,1.48-8.45,14.56-10.04,19.2-1.57,4.6-2.5,9.21-2.54,9.4Z"/>
    <path class="cls-1" d="M291.68,117.58c.62,.35,1.29,.52,1.95,.52,1.39,0,2.73-.73,3.46-2.02,.11-.19,2.7-4.78,4.68-9.36,.87-2.01-.06-4.35-2.07-5.23-2.01-.87-4.35,.06-5.23,2.07-1.81,4.18-4.27,8.55-4.3,8.6-1.08,1.91-.41,4.34,1.5,5.42Z"/>
    <path class="cls-1" d="M315.43,117.84c-.37-.07-9.08-1.53-16.83,5.45-5.78,5.2-11.87,15.39-12.08,23.44-.11,4.35,1.54,6.94,2.96,8.35,2.17,2.17,4.92,2.92,7.7,2.92,4.41,0,8.9-1.9,11.25-3.08,.27-.14,.53-.23,.76-.29,1.27-.32,2.44-.95,3.26-1.96l.14-.17c.27-.34,.52-.7,.72-1.08h0c.48-1.68-.34-3.51-1.96-4.15-1.54-.61-3.71-.84-6.48,.54-4.34,2.17-8.54,2.87-9.78,1.64-.59-.59-.65-1.84-.63-2.53,.13-5.03,4.55-13.32,9.46-17.74,4.73-4.26,9.85-3.57,10.14-3.52,2.14,.37,4.19-1.07,4.58-3.22,.39-2.16-1.05-4.23-3.21-4.61Z"/>
    <path class="cls-1" d="M260.7,170.22c-1.64-.64-3.94-.61-5.58,3.15-.58,1.33-.97,1.65-.96,1.66-.19,.05-.81,.04-1.26,.03-1.48-.04-3.51-.09-5.83,.99-5.15,2.39-6.97,5.71-7.28,6.35l7.14,3.49-.06,.12c.04-.06,.9-1.52,3.55-2.75,.47-.22,.95-.24,1.62-.26-2.3,6.92-4.39,13.71-5,17.89-1.39,9.52,1.01,17.49,1.11,17.82,.52,1.71,2.09,2.8,3.79,2.8,.38,0,.77-.06,1.16-.17,2.1-.64,3.28-2.86,2.65-4.95-.02-.07-1.97-6.67-.85-14.35,.75-5.16,4.81-16.99,6.76-22.67,.43-1.26,.79-2.3,1.03-3.04,1.29-3.9-.38-5.47-2-6.1Z"/>
    <path class="cls-1" d="M288.25,169.39c-13.14,0-25.52,18.93-25.52,33.6,0,7.06,3.04,11.1,5.6,13.25,4.45,3.74,10.39,4.53,14.61,4.53,2.64,0,4.61-.31,5.09-.39,2.16-.38,3.61-2.43,3.23-4.6-.17-.98-.68-1.81-1.39-2.39,2.71-1.48,8.09-6.13,11.23-20.3,1.67-7.53,.57-14.43-3.03-18.92-2.47-3.07-5.95-4.77-9.82-4.77Zm5.1,21.96c-1.43,6.46-3.21,10.2-4.62,12.34s-1.88,4.72-1.18,7.17l.48,1.67c-.44-.08-.89-.08-1.36,0-2.23,.39-9.46,.78-13.22-2.39-1.86-1.57-2.77-3.91-2.77-7.16,0-11.27,9.85-25.65,17.57-25.65,1.47,0,2.66,.59,3.62,1.79,2.02,2.52,2.59,7.21,1.47,12.22Z"/>
  </g>
</svg>