<?xml version="1.0" encoding="UTF-8"?>
<svg id="Layer_1" data-name="Layer 1" xmlns="http://www.w3.org/2000/svg" xmlns:xlink="http://www.w3.org/1999/xlink" viewBox="0 0 556 113">
  <defs>
    <style>
      .cls-1 {
        fill: #fff;
      }

      .cls-2 {
        filter: url(#outer-glow-1);
      }
    </style>
    <filter id="outer-glow-1" filterUnits="userSpaceOnUse">
      <feOffset dx="0" dy="0"/>
      <feGaussianBlur result="blur" stdDeviation="9"/>
      <feFlood flood-color="#3ff" flood-opacity=".91"/>
      <feComposite in2="blur" operator="in"/>
      <feComposite in="SourceGraphic"/>
    </filter>
  </defs>
  <g class="cls-2">
    <g>
      <path class="cls-1" d="M24.3,64.12c1.12,.02,2.15,.76,2.39,1.88,.28,1.26-.59,2.54-1.88,2.82-1.73,.38-3.01-.9-3.28-2.13-.69-3.1,.79-6.33,3.43-8.32,.37,.37,.55,.55,.91,.91-1.4,1.42-1.91,3.04-1.57,4.83Zm9.19-1.99c1.12,.03,2.14,.78,2.38,1.9,.27,1.27-.58,2.52-1.9,2.81-1.74,.37-3-.92-3.27-2.16-.67-3.1,.84-6.32,3.49-8.29,.36,.37,.54,.55,.91,.92-1.41,1.41-1.93,3.02-1.61,4.82Z"/>
      <path class="cls-1" d="M42.92,58.37c4.22-.86,6.33-1.28,10.56-2.1,.25,1.28,.37,1.92,.62,3.2-2.9,.56-4.35,.85-7.25,1.43,.31,1.55,.46,2.32,.77,3.86,2.89-.58,4.33-.86,7.22-1.42,.25,1.28,.37,1.92,.62,3.2-2.88,.56-4.32,.84-7.2,1.42,.72,3.59,1.08,5.38,1.8,8.97-1.29,.26-1.94,.39-3.24,.65-1.56-7.69-2.34-11.53-3.91-19.22Z"/>
      <path class="cls-1" d="M64.67,65.05c.65,3.5,.98,5.26,1.63,8.76-1.3,.24-1.95,.36-3.24,.61-1.14-6.03-1.71-9.05-2.84-15.08,.45-.08,.67-.13,1.12-.21,.66,.79,.99,1.18,1.65,1.96,.81-1.71,2.34-3.04,4.27-3.39,.3-.05,.96-.09,.96-.09,.45,2.5,.68,3.75,1.13,6.25-.44,.08-.65,.12-1.09,.2-.87-1.07-1.3-1.61-2.17-2.68-1.08,.77-1.7,2.2-1.43,3.67Z"/>
      <path class="cls-1" d="M82.91,68.07c1.73-.29,2.91-1.54,3.64-2.4,.82,.7,1.23,1.05,2.04,1.75-1.01,1.75-3.06,3.31-5.46,3.72-4.95,.84-8.49-2.13-9.26-6.45-.78-4.37,1.67-8.48,6.21-9.26,4.33-.74,8.22,2.38,8.19,7.12-4.32,.71-6.47,1.08-10.78,1.83,.21,2.08,2.22,4.24,5.42,3.69Zm1.38-7.6c-.25-1.48-1.62-2.38-3.66-2.04-1.33,.23-2.79,1.14-3.16,3.2,2.73-.47,4.09-.71,6.82-1.17Z"/>
      <path class="cls-1" d="M100.25,68.41c-1.79,.28-3.29-.08-5.17-.97-.03-1.11-.05-1.67-.08-2.79,2.16,.7,3.57,1.01,4.86,.81,1.09-.17,2.48-.92,2.31-2.02-.39-2.59-7.97-.42-8.79-5.56-.43-2.7,1.85-5.03,4.97-5.51,1.87-.29,3.33,.05,5.44,1.17-.25,1.01-.37,1.52-.62,2.53-1.6-.56-3.03-1-4.28-.8-1.48,.23-2.29,1.07-2.17,1.88,.38,2.41,8.03,.61,8.75,5.44,.47,3.17-2.14,5.34-5.22,5.82Z"/>
      <path class="cls-1" d="M117.1,49.72c3.42-.47,6.47,1.94,7.07,6.43,.03,.21,.04,.31,.07,.52,.41,3.1,.62,4.65,1.03,7.75-1.31,.17-1.96,.26-3.26,.44-.42-3.08-.63-4.62-1.04-7.69-.03-.2-.04-.3-.07-.5-.38-2.77-2.12-4.02-3.9-3.77-1.81,.25-3.4,2.11-3.12,4.09,.06,.41,.09,.61,.14,1.02,.44,3.12,.66,4.68,1.11,7.8-1.3,.18-1.96,.28-3.26,.47-1.31-9.06-1.96-13.58-3.27-22.64,1.33-.19,1.99-.29,3.32-.48,.49,3.46,.74,5.19,1.23,8.65,.91-1.08,2.49-1.89,3.95-2.1Z"/>
      <path class="cls-1" d="M144.16,58.79c2.23-.26,3.35-.38,5.58-.63,.14,1.3,.22,1.95,.36,3.24-3.53,.39-5.3,.59-8.83,1.01-.92-7.79-1.38-11.69-2.31-19.48,1.33-.16,1.99-.24,3.32-.39,.75,6.5,1.13,9.74,1.88,16.24Z"/>
      <path class="cls-1" d="M166.34,59.72c-.58-.88-.88-1.32-1.46-2.19-1.08,1.76-2.69,2.92-4.66,3.13-3.68,.38-6.92-2.85-7.46-7.26-.53-4.41,2.1-8.27,5.84-8.65,2-.2,3.83,.62,5.25,2.14,.41-.97,.62-1.46,1.03-2.43,.45-.04,.68-.07,1.14-.11,.58,6.11,.88,9.17,1.46,15.28-.45,.04-.67,.06-1.12,.11Zm-7.02-11.98c-2.03,.21-3.4,2.6-3.12,5.29,.28,2.69,2.11,4.75,4.12,4.54,2.01-.2,3.39-2.58,3.12-5.28-.26-2.69-2.09-4.76-4.12-4.55Z"/>
      <path class="cls-1" d="M172.27,47.03c-.12-1.3-.18-1.95-.29-3.25,1.2-.11,1.79-.16,2.99-.27-.19-2.21-.29-3.32-.49-5.54,1.33-.12,2-.17,3.33-.29,.19,2.22,.28,3.32,.47,5.54,2-.17,3-.25,4.99-.41,.1,1.3,.16,1.95,.26,3.25-1.99,.16-2.99,.24-4.98,.41,.22,2.55,.33,3.83,.54,6.39,.2,2.31,1.37,3.1,2.7,2.99,.71-.06,1.22-.31,1.86-.62,.22,.79,.33,1.18,.55,1.96-.8,.8-1.82,1.39-3,1.49-2.71,.23-5.07-1.93-5.4-5.68-.22-2.5-.33-3.74-.55-6.24-1.19,.1-1.79,.16-2.98,.27Z"/>
      <path class="cls-1" d="M192.49,36.21c.08,1.06-.76,1.97-1.84,2.05-1.11,.08-2.08-.7-2.16-1.76-.08-1.08,.75-2.03,1.87-2.12,1.08-.08,2.05,.73,2.13,1.82Zm-3.23,6.14c1.33-.1,1.99-.15,3.32-.25,.44,6.12,.67,9.18,1.11,15.31-1.31,.1-1.97,.14-3.28,.24-.46-6.12-.69-9.18-1.15-15.31Z"/>
      <path class="cls-1" d="M210.45,56.32c-.19-3.3-.29-4.95-.48-8.25-.16-2.79-1.8-4.17-3.59-4.06-1.82,.11-3.54,1.84-3.41,3.84,.23,3.56,.34,5.33,.57,8.89-1.31,.08-1.97,.13-3.28,.21-.41-6.13-.61-9.19-1.02-15.31,.45-.03,.68-.05,1.14-.08,.56,.86,.84,1.29,1.4,2.15,1.01-1.6,3.01-2.76,4.96-2.87,3.44-.21,6.29,2.43,6.54,6.95,.18,3.34,.28,5,.46,8.34-1.31,.07-1.97,.11-3.28,.19Z"/>
      <path class="cls-1" d="M229,35.76c4.28-.18,6.42-.26,10.71-.39,.04,1.3,.06,1.96,.1,3.26-2.94,.09-4.41,.15-7.35,.26,.06,1.57,.09,2.36,.15,3.94,2.93-.11,4.39-.16,7.32-.26,.04,1.3,.06,1.96,.1,3.26-2.92,.09-4.38,.15-7.3,.26,.14,3.66,.21,5.48,.35,9.14-1.31,.05-1.97,.08-3.28,.13-.32-7.84-.48-11.76-.81-19.6Z"/>
      <path class="cls-1" d="M260.08,46.83c.07,4.44-3.16,8.04-7.25,8.13-4.05,.09-7.43-3.38-7.56-7.82-.12-4.44,3.11-8.09,7.22-8.18,4.14-.09,7.52,3.42,7.59,7.86Zm-11.35,.22c.07,2.71,1.87,4.9,4.04,4.85,2.2-.05,3.91-2.31,3.86-5.02-.05-2.7-1.85-4.91-4.07-4.86-2.18,.05-3.89,2.32-3.83,5.03Z"/>
      <path class="cls-1" d="M279.94,46.7c0,4.44-3.3,7.99-7.38,8.01-4.05,.02-7.37-3.5-7.42-7.94-.05-4.44,3.24-8.03,7.35-8.05,4.14-.02,7.46,3.55,7.45,7.99Zm-11.35,.03c.02,2.71,1.79,4.93,3.95,4.92,2.2,0,3.94-2.24,3.94-4.95,0-2.71-1.77-4.94-3.98-4.93-2.18,0-3.93,2.26-3.91,4.96Z"/>
      <path class="cls-1" d="M297.77,54.55c-.48-.94-.72-1.41-1.2-2.34-1.27,1.63-3,2.6-4.98,2.58-3.7-.04-6.6-3.62-6.58-8.06,.03-4.44,3.02-7.98,6.77-7.93,1.53,.02,2.93,.63,4.02,1.64,.05-3.52,.08-5.27,.14-8.79,1.35,.02,2.03,.03,3.38,.06-.17,9.15-.25,13.72-.42,22.87-.45,0-.67-.01-1.12-.02Zm-5.61-12.7c-2.03-.03-3.67,2.19-3.7,4.9-.03,2.71,1.56,4.95,3.57,4.98,2.02,.03,3.65-2.18,3.7-4.89,.04-2.7-1.54-4.96-3.57-4.99Z"/>
      <path class="cls-1" d="M331.64,40.28c1.41,.07,2.12,.1,3.54,.17-2.9,6.13-4.33,9.2-7.16,15.36-.45-.02-.67-.03-1.12-.05-1.21-3.38-1.81-5.07-3.04-8.45-1.5,3.27-2.25,4.91-3.73,8.18-.44-.02-.66-.02-1.09-.04-2.33-6.36-3.51-9.53-5.91-15.88,1.41,.04,2.12,.07,3.54,.11,1.29,3.46,1.93,5.18,3.2,8.64,.96-2.15,1.44-3.23,2.41-5.38-.46-1.24-.68-1.86-1.14-3.1,1.41,.05,2.12,.08,3.54,.14,1.25,3.46,1.88,5.2,3.11,8.66,1.54-3.35,2.31-5.02,3.87-8.36Z"/>
      <path class="cls-1" d="M343.1,34.97c-.06,1.06-1.01,1.86-2.09,1.8-1.11-.06-1.97-.96-1.91-2.02,.06-1.09,1.01-1.92,2.12-1.86,1.09,.06,1.94,.99,1.88,2.08Zm-3.98,5.67c1.33,.07,1.99,.11,3.32,.18-.34,6.13-.51,9.19-.85,15.33-1.31-.07-1.97-.11-3.28-.18,.32-6.13,.48-9.2,.81-15.33Z"/>
      <path class="cls-1" d="M348.24,44.43c.08-1.3,.12-1.95,.2-3.26,1.2,.07,1.8,.11,2.99,.19,.14-2.22,.21-3.33,.35-5.55,1.34,.08,2,.13,3.34,.22-.15,2.22-.22,3.33-.37,5.55,2,.13,3,.2,5,.34-.09,1.3-.14,1.95-.23,3.26-1.99-.14-2.99-.21-4.98-.34-.17,2.56-.25,3.84-.42,6.4-.15,2.32,.88,3.27,2.22,3.36,.71,.05,1.26-.12,1.93-.34,.1,.81,.15,1.21,.24,2.02-.91,.67-2.01,1.1-3.19,1.02-2.72-.18-4.73-2.67-4.49-6.42,.16-2.5,.24-3.75,.39-6.25-1.19-.08-1.79-.11-2.99-.18Z"/>
      <path class="cls-1" d="M373.27,42.62c3.44,.28,5.89,3.3,5.5,7.81-.02,.21-.03,.32-.05,.53-.27,3.12-.41,4.67-.68,7.79-1.31-.11-1.97-.17-3.28-.28,.26-3.09,.39-4.64,.65-7.74,.02-.2,.03-.3,.04-.5,.23-2.78-1.19-4.38-2.98-4.53-1.82-.15-3.77,1.32-3.92,3.32-.03,.41-.05,.62-.08,1.03-.25,3.14-.37,4.71-.62,7.86-1.31-.1-1.97-.15-3.28-.25,.69-9.13,1.03-13.69,1.72-22.81,1.34,.1,2.01,.15,3.34,.26-.27,3.48-.41,5.22-.68,8.71,1.12-.86,2.84-1.31,4.31-1.19Z"/>
      <path class="cls-1" d="M406.08,61.54c-.39-.98-.59-1.47-.98-2.45-1.42,1.5-3.24,2.31-5.21,2.1-3.68-.39-6.18-4.22-5.8-8.64,.39-4.42,3.76-7.66,7.49-7.26,2,.21,3.63,1.4,4.7,3.17,.6-.87,.9-1.3,1.51-2.17,.45,.05,.68,.08,1.13,.13-.69,6.1-1.03,9.15-1.72,15.25-.45-.05-.67-.08-1.12-.13Zm-4.41-13.17c-2.03-.22-3.86,1.84-4.14,4.53-.28,2.69,1.09,5.08,3.09,5.29,2.01,.21,3.85-1.83,4.14-4.52,.3-2.69-1.07-5.09-3.09-5.3Z"/>
      <path class="cls-1" d="M423.27,47.11c.16-1.3,.24-1.94,.41-3.24,5.85,.73,8.78,1.12,14.62,1.92-.18,1.29-.27,1.94-.45,3.23-2.25-.31-3.38-.46-5.63-.76-.86,6.48-1.29,9.72-2.15,16.21-1.31-.17-1.96-.26-3.26-.43,.84-6.49,1.27-9.73,2.11-16.21-2.25-.29-3.38-.44-5.64-.72Z"/>
      <path class="cls-1" d="M457.73,52.96c1.4,.22,2.1,.33,3.51,.55-3.55,5.78-5.31,8.68-8.79,14.49-.45-.07-.67-.1-1.11-.17-.84-3.49-1.26-5.24-2.12-8.73-1.85,3.09-2.77,4.64-4.6,7.73-.43-.06-.65-.09-1.09-.16-1.64-6.57-2.47-9.86-4.18-16.42,1.41,.2,2.11,.29,3.51,.49,.91,3.58,1.36,5.36,2.25,8.94,1.19-2.04,1.79-3.06,2.98-5.09-.32-1.28-.48-1.93-.8-3.21,1.4,.21,2.11,.31,3.51,.52,.88,3.58,1.31,5.37,2.16,8.95,1.9-3.16,2.85-4.74,4.76-7.89Z"/>
      <path class="cls-1" d="M469.73,48.93c-.17,1.04-1.2,1.74-2.28,1.56-1.1-.18-1.86-1.17-1.69-2.21,.17-1.07,1.21-1.8,2.32-1.62,1.08,.18,1.83,1.19,1.65,2.27Zm-4.58,5.21c1.32,.21,1.98,.32,3.3,.54-1,6.06-1.5,9.09-2.5,15.14-1.3-.21-1.95-.32-3.25-.53,.98-6.06,1.47-9.09,2.46-15.15Z"/>
      <path class="cls-1" d="M477.01,72.09c-1.78-.31-3.09-1.13-4.59-2.58,.33-1.07,.49-1.6,.82-2.66,1.82,1.36,3.05,2.11,4.34,2.33,1.08,.19,2.64-.07,2.84-1.17,.46-2.58-7.42-2.96-6.54-8.09,.46-2.7,3.37-4.17,6.48-3.62,1.87,.33,3.14,1.12,4.78,2.85-.56,.88-.84,1.32-1.4,2.2-1.34-1.05-2.56-1.92-3.8-2.14-1.48-.26-2.52,.28-2.66,1.09-.42,2.4,7.42,3.16,6.55,7.97-.57,3.15-3.75,4.37-6.82,3.84Z"/>
      <path class="cls-1" d="M490.26,61.8c.24-1.28,.36-1.93,.59-3.21,1.18,.22,1.78,.33,2.96,.55,.41-2.18,.61-3.28,1.03-5.46,1.32,.25,1.98,.37,3.3,.62-.42,2.18-.62,3.28-1.04,5.46,1.98,.38,2.96,.57,4.94,.95-.25,1.28-.37,1.92-.62,3.2-1.97-.38-2.95-.57-4.93-.95-.48,2.52-.72,3.78-1.2,6.3-.43,2.28,.48,3.35,1.8,3.61,.7,.14,1.27,.03,1.96-.1,0,.81,0,1.22,0,2.04-.99,.56-2.13,.84-3.3,.62-2.68-.52-4.38-3.23-3.69-6.93,.46-2.46,.69-3.69,1.16-6.16-1.18-.22-1.77-.33-2.95-.55Z"/>
      <path class="cls-1" d="M508.11,77.91c-1.28-.26-2.15-1.54-1.89-2.81,.26-1.27,1.55-2.12,2.84-1.86,1.32,.27,2.15,1.55,1.89,2.82-.26,1.27-1.53,2.12-2.84,1.85Z"/>
      <path class="cls-1" d="M518.21,65.25c1.87-.72,3.01-1.98,3.44-3.75-1.04-.49-1.64-1.58-1.41-2.7,.26-1.24,1.55-2.08,2.89-1.79,1.75,.37,2.38,2.07,2.11,3.34-.66,3.08-3.35,5.38-6.56,6.15-.19-.5-.29-.75-.48-1.24Zm9.19,1.97c1.85-.71,2.99-1.96,3.44-3.73-1.04-.5-1.63-1.59-1.39-2.71,.27-1.23,1.57-2.06,2.9-1.77,1.75,.39,2.36,2.09,2.08,3.35-.69,3.07-3.39,5.36-6.61,6.1-.17-.5-.26-.74-.44-1.24Z"/>
    </g>
  </g>
</svg>