<svg width="20" height="20" viewBox="0 0 20 20" fill="none" xmlns="http://www.w3.org/2000/svg">
<g id="Frame 1" clip-path="url(#clip0_1_2)">
<circle id="Ellipse" cx="10" cy="10" r="9.25" stroke="white" stroke-width="1.5"/>
<path id="VG" d="M3.41477 6.27273L6.00568 13.6193H6.10795L8.69886 6.27273H9.80682L6.60227 15H5.51136L2.30682 6.27273H3.41477ZM16.7219 9C16.6282 8.71307 16.5046 8.45597 16.3512 8.22869C16.2006 7.99858 16.0202 7.80256 15.81 7.64062C15.6026 7.47869 15.3668 7.35511 15.1026 7.26989C14.8384 7.18466 14.5487 7.14205 14.2333 7.14205C13.7163 7.14205 13.2461 7.27557 12.8228 7.54261C12.3995 7.80966 12.0629 8.20312 11.8129 8.72301C11.5629 9.2429 11.4379 9.88068 11.4379 10.6364C11.4379 11.392 11.5643 12.0298 11.8171 12.5497C12.07 13.0696 12.4123 13.4631 12.8441 13.7301C13.2759 13.9972 13.7617 14.1307 14.3015 14.1307C14.8015 14.1307 15.2418 14.0241 15.6225 13.8111C16.006 13.5952 16.3043 13.2912 16.5174 12.8991C16.7333 12.5043 16.8413 12.0398 16.8413 11.5057L17.1651 11.5739H14.5401V10.6364H17.864V11.5739C17.864 12.2926 17.7106 12.9176 17.4038 13.4489C17.0998 13.9801 16.6793 14.392 16.1424 14.6847C15.6083 14.9744 14.9947 15.1193 14.3015 15.1193C13.5288 15.1193 12.8498 14.9375 12.2646 14.5739C11.6822 14.2102 11.2276 13.6932 10.9009 13.0227C10.5771 12.3523 10.4151 11.5568 10.4151 10.6364C10.4151 9.94602 10.5075 9.32528 10.6921 8.77415C10.8796 8.22017 11.1438 7.74858 11.4847 7.35938C11.8256 6.97017 12.229 6.67188 12.695 6.46449C13.1609 6.2571 13.6737 6.15341 14.2333 6.15341C14.6935 6.15341 15.1225 6.22301 15.5202 6.36222C15.9208 6.49858 16.2773 6.69318 16.5898 6.94602C16.9052 7.19602 17.168 7.49574 17.3782 7.84517C17.5884 8.19176 17.7333 8.5767 17.8129 9H16.7219Z" fill="white"/>
</g>
<defs>
<clipPath id="clip0_1_2">
<rect width="20" height="20" fill="white"/>
</clipPath>
</defs>
</svg>
